<?xml version="1.0" encoding="UTF-8"?>
<svg xmlns="http://www.w3.org/2000/svg" xmlns:xlink="http://www.w3.org/1999/xlink" width="375pt" height="374.999991pt" viewBox="0 0 375 374.999991" version="1.2">
<g id="surface1">
<rect x="0" y="0" width="375" height="374.999991" style="fill:rgb(100%,100%,100%);fill-opacity:1;stroke:none;"/>
<rect x="0" y="0" width="375" height="374.999991" style="fill:rgb(100%,100%,100%);fill-opacity:1;stroke:none;"/>
<rect x="0" y="0" width="375" height="374.999991" style="fill:rgb(0%,0%,0%);fill-opacity:1;stroke:none;"/>
<path style=" stroke:none;fill-rule:nonzero;fill:rgb(54.899597%,32.159424%,100%);fill-opacity:1;" d="M 168.953125 211.230469 C 184.5 211.230469 197.097656 198.625 197.097656 183.082031 C 197.097656 167.542969 184.5 154.9375 168.953125 154.9375 C 153.410156 154.9375 140.808594 167.542969 140.808594 183.082031 C 140.808594 198.625 153.410156 211.230469 168.953125 211.230469 "/>
<path style=" stroke:none;fill-rule:nonzero;fill:rgb(54.899597%,32.159424%,100%);fill-opacity:1;" d="M 243.625 35.191406 C 237.128906 31.925781 230.757812 29.453125 224.832031 27.84375 C 216.265625 25.515625 207.367188 24.277344 198.84375 23.71875 C 199.226562 24.71875 199.441406 25.796875 199.441406 26.925781 L 199.441406 132.554688 C 216.53125 142.890625 227.960938 161.648438 227.960938 183.082031 C 227.960938 215.675781 201.542969 242.089844 168.953125 242.089844 C 136.363281 242.089844 109.945312 215.675781 109.945312 183.082031 C 109.945312 161.648438 121.375 142.890625 138.464844 132.554688 L 138.464844 28.652344 C 117.292969 33.070312 104.796875 39.804688 92.722656 44.453125 C 61.621094 56.433594 51.207031 77.652344 48.347656 95.28125 C 36.832031 119.96875 44.972656 149.640625 46.320312 165.21875 C 42.417969 167.613281 35.671875 170.644531 30.164062 167.304688 C 30.164062 167.304688 36.539062 174.078125 46.339844 172.597656 C 44.5625 195.984375 33.015625 205.382812 22.769531 209.988281 C 18.417969 211.957031 24.953125 219.355469 24.953125 219.355469 C 32.125 227.402344 35.839844 234.589844 36.714844 239.605469 C 38.054688 247.253906 37.574219 251.25 35.699219 254.679688 C 34.519531 256.820312 35.800781 261.152344 41.84375 262.234375 C 41.84375 262.234375 40.050781 263.292969 39.136719 264.871094 C 37.355469 268.125 40.714844 270.117188 44.652344 271.9375 C 44.652344 271.9375 51.851562 279.699219 49.988281 296.433594 C 48.347656 311.097656 67.035156 320.300781 87.4375 315.816406 C 99.910156 313.066406 157.125 286.359375 164.523438 290.117188 C 167.925781 291.84375 168.359375 339.671875 167.355469 373.253906 C 176.082031 374.398438 184.972656 374.996094 194.007812 374.996094 C 218.609375 374.996094 242.191406 370.628906 264.019531 362.628906 C 254.03125 330.292969 249.101562 287.253906 247.921875 275.09375 C 258.789062 268.253906 268.503906 260.917969 276.929688 252.875 C 308.765625 229.105469 343.660156 188.15625 343.660156 122.769531 C 343.660156 2.605469 280.402344 0.03125 243.625 35.191406 "/>
</g>
</svg>
