<?xml version="1.0" encoding="UTF-8"?>
<svg xmlns="http://www.w3.org/2000/svg" xmlns:xlink="http://www.w3.org/1999/xlink" width="131.25pt" height="37.5pt" viewBox="0 0 131.25 37.5" version="1.2">
<defs>
<clipPath id="clip1">
  <path d="M 26 0 L 95 0 L 95 37.007812 L 26 37.007812 Z M 26 0 "/>
</clipPath>
<clipPath id="clip2">
  <path d="M 45.476562 1 L 75.824219 1 L 75.824219 34.785156 L 45.476562 34.785156 Z M 45.476562 1 "/>
</clipPath>
</defs>
<g id="surface1">
<g clip-path="url(#clip1)" clip-rule="nonzero">
<path style=" stroke:none;fill-rule:nonzero;fill:rgb(0%,0%,0%);fill-opacity:1;" d="M 26.542969 -11.683594 L 94.824219 -11.683594 L 94.824219 38.859375 L 26.542969 38.859375 Z M 26.542969 -11.683594 "/>
</g>
<path style=" stroke:none;fill-rule:nonzero;fill:rgb(54.899597%,32.159424%,100%);fill-opacity:1;" d="M 59.527344 19.59375 C 60.972656 19.59375 62.144531 18.425781 62.144531 16.984375 C 62.144531 15.542969 60.972656 14.371094 59.527344 14.371094 C 58.082031 14.371094 56.910156 15.542969 56.910156 16.984375 C 56.910156 18.425781 58.082031 19.59375 59.527344 19.59375 "/>
<g clip-path="url(#clip2)" clip-rule="nonzero">
<path style=" stroke:none;fill-rule:nonzero;fill:rgb(54.899597%,32.159424%,100%);fill-opacity:1;" d="M 66.472656 3.265625 C 65.867188 2.960938 65.273438 2.730469 64.722656 2.582031 C 63.925781 2.367188 63.097656 2.25 62.304688 2.199219 C 62.34375 2.292969 62.363281 2.394531 62.363281 2.496094 L 62.363281 12.296875 C 63.953125 13.253906 65.015625 14.996094 65.015625 16.984375 C 65.015625 20.007812 62.558594 22.457031 59.527344 22.457031 C 56.496094 22.457031 54.039062 20.007812 54.039062 16.984375 C 54.039062 14.996094 55.101562 13.253906 56.691406 12.296875 L 56.691406 2.65625 C 54.722656 3.066406 53.558594 3.691406 52.4375 4.125 C 49.542969 5.234375 48.574219 7.203125 48.308594 8.839844 C 47.238281 11.128906 47.992188 13.882812 48.121094 15.328125 C 47.757812 15.546875 47.128906 15.828125 46.617188 15.519531 C 46.617188 15.519531 47.210938 16.148438 48.121094 16.011719 C 47.957031 18.179688 46.882812 19.050781 45.929688 19.480469 C 45.523438 19.660156 46.132812 20.347656 46.132812 20.347656 C 46.800781 21.09375 47.144531 21.761719 47.226562 22.226562 C 47.351562 22.9375 47.304688 23.308594 47.132812 23.625 C 47.023438 23.824219 47.140625 24.226562 47.703125 24.324219 C 47.703125 24.324219 47.535156 24.425781 47.453125 24.570312 C 47.285156 24.871094 47.597656 25.058594 47.964844 25.226562 C 47.964844 25.226562 48.632812 25.945312 48.460938 27.496094 C 48.308594 28.859375 50.046875 29.710938 51.945312 29.296875 C 53.105469 29.039062 58.425781 26.5625 59.113281 26.914062 C 59.429688 27.074219 59.472656 31.507812 59.378906 34.625 C 60.1875 34.730469 61.015625 34.785156 61.855469 34.785156 C 64.144531 34.785156 66.339844 34.378906 68.371094 33.636719 C 67.441406 30.640625 66.980469 26.648438 66.871094 25.519531 C 67.882812 24.882812 68.785156 24.203125 69.570312 23.457031 C 72.53125 21.253906 75.777344 17.453125 75.777344 11.386719 C 75.777344 0.242188 69.894531 0.00390625 66.472656 3.265625 "/>
</g>
</g>
</svg>
